<svg class="icon" viewBox="0 0 1024 1024" xmlns="http://www.w3.org/2000/svg" width="128" height="128"><defs/><path d="M529.067 921.6h-512C6.827 921.6 0 914.773 0 904.533v-614.4c0-3.413 3.413-10.24 3.413-13.653L276.48 3.413c3.413 0 10.24-3.413 13.653-3.413h443.734c10.24 0 17.066 6.827 17.066 17.067v512c0 10.24-6.826 17.066-17.066 17.066s-17.067-6.826-17.067-17.066V34.133H296.96L34.133 296.96v590.507h494.934c10.24 0 17.066 6.826 17.066 17.066s-6.826 17.067-17.066 17.067z"/><path d="M290.133 307.2H17.067C6.827 307.2 0 300.373 0 290.133s6.827-17.066 17.067-17.066h256v-256C273.067 6.827 279.893 0 290.133 0S307.2 6.827 307.2 17.067v273.066c0 10.24-6.827 17.067-17.067 17.067zm512 648.533c-10.24 0-17.066-6.826-17.066-17.066V699.733c0-10.24 6.826-17.066 17.066-17.066s17.067 6.826 17.067 17.066v238.934c0 10.24-6.827 17.066-17.067 17.066z"/><path d="M904.533 819.2c-3.413 0-10.24 0-13.653-3.413l-88.747-88.747-88.746 88.747c-6.827 6.826-17.067 6.826-23.894 0s-6.826-17.067 0-23.894l102.4-102.4c6.827-6.826 17.067-6.826 23.894 0l102.4 102.4c6.826 6.827 6.826 17.067 0 23.894-3.414 3.413-10.24 3.413-13.654 3.413z"/><path d="M802.133 1024c-122.88 0-221.866-98.987-221.866-221.867s98.986-221.866 221.866-221.866S1024 679.253 1024 802.133 925.013 1024 802.133 1024zm0-409.6c-102.4 0-187.733 85.333-187.733 187.733s85.333 187.734 187.733 187.734 187.734-85.334 187.734-187.734S904.533 614.4 802.133 614.4z"/></svg>